<svg class="icon" style="width: 1em;height: 1em;vertical-align: middle;fill: currentColor;overflow: hidden;" viewBox="0 0 1024 1024" version="1.1" xmlns="http://www.w3.org/2000/svg" p-id="2789"><path d="M0 0h1024v1024H0z" fill="#FFFFFF" fill-opacity=".01" p-id="2790"></path><path d="M512 192c135.808 0 275.52 72.32 419.072 216.96 56.64 57.024 56.64 149.12 0 206.08l-17.92 17.728C775.872 765.568 642.176 832 512 832c-135.808 0-275.52-72.32-419.072-216.96a146.304 146.304 0 0 1 0-206.08l17.92-17.728C248.128 258.432 381.824 192 512 192z m0 100.416a219.584 219.584 0 1 0 0 439.168A219.584 219.584 0 0 0 512 292.48z m0 96A123.584 123.584 0 1 1 512 635.52 123.584 123.584 0 0 1 512 388.48z" fill="#5A6677" p-id="2791"></path></svg>